Coordinates
version=1
nRows=5
nColumns=40
inDegrees=yes

Units are S.I. units (second, meters, Newtons, ...)
Angles are in degrees.

endheader
time	pelvis_tilt	pelvis_list	pelvis_rotation	pelvis_tx	pelvis_ty	pelvis_tz	hip_flexion_r	hip_adduction_r	hip_rotation_r	knee_angle_r	knee_angle_r_beta	ankle_angle_r	subtalar_angle_r	mtp_angle_r	hip_flexion_l	hip_adduction_l	hip_rotation_l	knee_angle_l	knee_angle_l_beta	ankle_angle_l	subtalar_angle_l	mtp_angle_l	lumbar_extension	lumbar_bending	lumbar_rotation	arm_flex_r	arm_add_r	arm_rot_r	elbow_flex_r	pro_sup_r	wrist_flex_r	wrist_dev_r	arm_flex_l	arm_add_l	arm_rot_l	elbow_flex_l	pro_sup_l	wrist_flex_l	wrist_dev_l
     52.04500000	     -4.18953786	     -4.47083054	      0.32803404	      0.96851669	      0.91430140	      0.39583372	     21.73457558	     -5.74645275	     -5.64739490	     64.77310672	     64.77310672	      3.03453630	    -18.60284749	      3.95916464	     19.81831971	     -2.17900041	     -0.07267181	     33.37124495	     33.37124495	     19.95641263	    -17.15471137	      7.90592663	    -10.01315737	      5.45826127	      3.70780852	     16.51107347	    -13.07050768	    -12.96194678	     32.54299344	     46.40188060	      0.00000000	      0.00000000	     15.59907289	    -13.88371495	     20.21862904	     33.30028107	     44.62805192	      0.00000000	      0.00000000
     52.06457143	     -4.03853039	     -4.42102369	     -0.14491148	      0.96733009	      0.91376714	      0.39441501	     23.46451085	     -5.58150931	     -5.18073888	     66.20972394	     66.20972394	      5.01938664	    -18.77197800	     10.17726388	     19.35846793	     -2.09700208	     -0.40554712	     33.60691482	     33.60691482	     20.58374029	    -17.24454021	      8.28797053	    -10.23214819	      5.72340155	      3.25361961	     14.42892824	    -12.64856468	    -13.45188997	     29.34378026	     46.54420928	      0.00000000	      0.00000000	     17.58516428	    -14.49828420	     19.39387753	     34.44730819	     44.82022729	      0.00000000	      0.00000000
     52.08414286	     -3.93452726	     -4.40420857	     -0.68426968	      0.96617533	      0.91363747	      0.39338928	     24.86043738	     -5.45010755	     -4.98461514	     66.47636517	     66.47636517	      5.75265045	    -19.00300153	     10.72968731	     18.78584214	     -2.09577538	     -0.82572813	     33.53430264	     33.53430264	     20.95359910	    -17.34560532	      8.26984418	    -10.42967843	      5.98483459	      3.34916923	     11.60188112	    -12.58522473	    -13.49592746	     27.49495633	     46.60264411	      0.00000000	      0.00000000	     19.79406707	    -14.93122417	     18.76118130	     35.80301242	     44.94439192	      0.00000000	      0.00000000
     52.10371429	     -3.89699027	     -4.39089953	     -1.25360754	      0.96485980	      0.91391093	      0.39275470	     26.20277009	     -5.17836552	     -4.74868543	     65.99191895	     65.99191895	      6.74380670	    -19.07607604	     11.28925332	     18.19207046	     -2.13821832	     -1.32971345	     33.26617114	     33.26617114	     21.21836678	    -17.31488408	      8.26665064	    -10.63268589	      6.25780354	      3.42421668	      8.91423346	    -12.51851793	    -13.49961074	     25.70199956	     46.65918696	      0.00000000	      0.00000000	     21.95553068	    -15.40311204	     17.99446112	     37.30635054	     45.07962769	      0.00000000	      0.00000000
     52.12328571	     -3.91691864	     -4.47078357	     -1.86068825	      0.96352303	      0.91465343	      0.39266769	     27.37636979	     -4.67250125	     -4.55202353	     64.62573334	     64.62573334	      7.79695295	    -19.05612940	     11.51202667	     17.52686606	     -2.32691325	     -1.88184111	     32.75202173	     32.75202173	     21.41109526	    -17.20630061	      8.25524042	    -10.77867029	      6.58862315	      3.40234308	      6.42675771	    -12.40346015	    -13.48396064	     24.14829888	     46.70700019	      0.00000000	      0.00000000	     23.96718406	    -15.98083712	     17.10968866	     38.86061614	     45.22151879	      0.00000000	      0.00000000
